<svg width="55" height="43" viewBox="0 0 55 43" fill="none" xmlns="http://www.w3.org/2000/svg">
<path d="M50.7167 0.75029C36.2742 6.9835 29.8368 19.8641 30.3634 29.0053C31.0202 38.2856 37.0611 42.303 42.3121 42.164C47.8264 42.303 52.2935 37.7324 52.2935 31.9134C52.2935 27.6208 49.7997 22.358 41.2619 21.6657C43.6256 15.1574 48.0927 9.7525 54.0005 6.43029L50.7167 0.75029Z" fill="#F4F2FE"/>
<path d="M21.1334 0.75029C6.68787 6.9835 0.25349 19.8641 0.780075 29.0053C1.43682 38.2856 7.47774 42.303 12.7288 42.164C18.2431 42.303 22.7102 37.7324 22.7102 31.9134C22.7102 27.6208 20.2163 22.358 11.6786 21.6657C14.0423 15.1574 18.5064 9.7525 24.4172 6.43029L21.1334 0.75029Z" fill="#F4F2FE"/>
<path d="M50.7167 0.75029C36.2742 6.9835 29.8368 19.8641 30.3634 29.0053C31.0202 38.2856 37.0611 42.303 42.3121 42.164C47.8264 42.303 52.2935 37.7324 52.2935 31.9134C52.2935 27.6208 49.7997 22.358 41.2619 21.6657C43.6256 15.1574 48.0927 9.7525 54.0005 6.43029L50.7167 0.75029Z" stroke="#E7E0FE" stroke-width="1.5" stroke-miterlimit="10" stroke-linecap="round" stroke-linejoin="round"/>
<path d="M21.1334 0.75029C6.68787 6.9835 0.25349 19.8641 0.780075 29.0053C1.43682 38.2856 7.47774 42.303 12.7288 42.164C18.2431 42.303 22.7102 37.7324 22.7102 31.9134C22.7102 27.6208 20.2163 22.358 11.6786 21.6657C14.0423 15.1574 18.5064 9.7525 24.4172 6.43029L21.1334 0.75029Z" stroke="#E7E0FE" stroke-width="1.5" stroke-miterlimit="10" stroke-linecap="round" stroke-linejoin="round"/>
</svg>
