<svg width="75" height="62" viewBox="0 0 75 62" fill="none" xmlns="http://www.w3.org/2000/svg">
<mask id="mask0_463_1508" style="mask-type:luminance" maskUnits="userSpaceOnUse" x="13" y="0" width="62" height="62">
<path d="M13.311 0H74.2429V61.0612H13.311V0Z" fill="white"/>
</mask>
<g mask="url(#mask0_463_1508)">
<path d="M74.2239 13.0071C74.2227 13.0048 74.2227 13.0037 74.2227 13.0015C74.2182 12.986 74.2136 12.9706 74.209 12.954C74.209 12.9517 74.2079 12.9495 74.2067 12.9462C74.2022 12.9296 74.1964 12.913 74.1896 12.8975C74.1884 12.8931 74.1862 12.8898 74.185 12.8865C74.1816 12.8787 74.1782 12.871 74.1747 12.8621C74.1736 12.8577 74.1713 12.8533 74.169 12.8489C74.1667 12.8444 74.1644 12.84 74.1622 12.8356C74.1462 12.8035 74.129 12.7736 74.1096 12.7449C74.1073 12.7427 74.1062 12.7404 74.105 12.7382C74.0833 12.7072 74.0616 12.6785 74.0365 12.6508C74.0353 12.6508 74.0353 12.6497 74.0342 12.6497C74.0227 12.6364 74.009 12.6232 73.9965 12.6099C73.9953 12.6099 73.9953 12.6088 73.9942 12.6088C73.9805 12.5955 73.9667 12.5833 73.9519 12.5712C73.9507 12.5701 73.9496 12.569 73.9473 12.5679C73.9347 12.5579 73.9222 12.5479 73.9085 12.538C73.9062 12.5358 73.9039 12.5347 73.9005 12.5324C73.8868 12.5225 73.8719 12.5125 73.857 12.5037C73.8536 12.5026 73.8502 12.5004 73.8468 12.4982C73.8342 12.4904 73.8216 12.4838 73.809 12.4771C73.8045 12.4749 73.801 12.4727 73.7976 12.4705C73.7816 12.4628 73.7668 12.4561 73.7508 12.4495C73.7496 12.4484 73.7473 12.4484 73.7462 12.4473L44.2231 0.0785863C44.0139 -0.0099194 43.7762 -0.0099194 43.5671 0.0785863L34.7313 3.78034C34.729 3.78145 34.7256 3.78255 34.7222 3.78366L14.044 12.4473C14.0417 12.4484 14.0394 12.4495 14.0371 12.4506C14.0223 12.4561 14.0074 12.4628 13.9937 12.4705C13.988 12.4727 13.9834 12.4749 13.9788 12.4782C13.9674 12.4838 13.956 12.4904 13.9446 12.497C13.9411 12.4993 13.9354 12.5015 13.932 12.5048C13.9171 12.5125 13.9034 12.5225 13.8897 12.5313C13.8863 12.5347 13.8828 12.5369 13.8794 12.5391C13.8668 12.5479 13.8554 12.5568 13.844 12.5656C13.8417 12.5679 13.8394 12.5701 13.8371 12.5723C13.8234 12.5833 13.8097 12.5955 13.7971 12.6077C13.7949 12.6088 13.7937 12.611 13.7914 12.6121C13.78 12.6232 13.7686 12.6353 13.7571 12.6475C13.756 12.6486 13.7549 12.6508 13.7526 12.6519C13.74 12.6663 13.7286 12.6796 13.7171 12.694C13.716 12.6951 13.716 12.6962 13.7137 12.6973C13.7046 12.7106 13.6954 12.7227 13.6863 12.736C13.684 12.7393 13.6817 12.7427 13.6794 12.746C13.6703 12.7592 13.6612 12.7736 13.652 12.7891C13.6509 12.7913 13.6497 12.7935 13.6486 12.7969C13.6417 12.8079 13.6349 12.8201 13.6292 12.8323C13.6257 12.8389 13.6234 12.8444 13.62 12.8511C13.6189 12.8544 13.6166 12.8588 13.6154 12.8621C13.612 12.8688 13.6097 12.8754 13.6063 12.882C13.6052 12.8876 13.6017 12.8931 13.5994 12.8986C13.5937 12.913 13.5892 12.9285 13.5834 12.944C13.5823 12.9484 13.5812 12.9529 13.58 12.9573C13.5754 12.9706 13.572 12.9838 13.5686 12.9971C13.5674 13.0015 13.5674 13.0048 13.5663 13.0082C13.5617 13.0259 13.5583 13.0436 13.556 13.0613C13.556 13.0624 13.556 13.0624 13.556 13.0635C13.5526 13.0812 13.5514 13.1 13.5492 13.1177C13.5492 13.1188 13.5492 13.1199 13.5492 13.1221C13.548 13.1409 13.5469 13.1608 13.5469 13.1796V23.3711C13.5469 23.8125 13.9171 24.1698 14.3719 24.1698C14.8279 24.1698 15.197 23.8125 15.197 23.3711V14.3955L43.07 26.0738V59.0367L15.197 47.3595V40.8808C15.197 40.4394 14.8279 40.0821 14.3719 40.0821C13.9171 40.0821 13.5469 40.4394 13.5469 40.8808V47.8839C13.5469 48.2014 13.7423 48.489 14.044 48.6162L43.55 60.9772C43.6551 61.0247 43.7717 61.0513 43.8951 61.0513C44.0185 61.0513 44.1271 61.027 44.2288 60.9827L73.7462 48.6162C74.0479 48.4901 74.2433 48.2014 74.2433 47.8839V13.1863C74.2444 13.1265 74.2376 13.0668 74.2239 13.0071ZM43.8951 1.68054L71.3418 13.1796L64.587 16.0107L37.1402 4.51051L43.8951 1.68054ZM43.8951 24.6799L16.4483 13.1796L27.9193 8.37379L55.3661 19.8729L43.8951 24.6799ZM35.0639 5.38119L62.5095 16.8803L57.4425 19.0033L29.9957 7.50422L35.0639 5.38119ZM58.2767 20.394L63.7745 18.0906V28.5099L58.2767 30.8133V20.394ZM44.7202 59.0367V26.0738L56.6265 21.0854V32.0292C56.6265 32.298 56.766 32.5491 56.9979 32.6963C57.1351 32.7837 57.2928 32.8279 57.4516 32.8279C57.5625 32.8279 57.6745 32.8058 57.7796 32.7615L64.9275 29.7667C65.2292 29.6406 65.4246 29.353 65.4246 29.0343V17.3992L72.5932 14.3955V47.3595L44.7202 59.0367Z" fill="#F97316"/>
</g>
<mask id="mask1_463_1508" style="mask-type:luminance" maskUnits="userSpaceOnUse" x="0" y="25" width="22" height="3">
<path d="M0 25.4885H21.5021V27.4711H0V25.4885Z" fill="white"/>
</mask>
<g mask="url(#mask1_463_1508)">
<path d="M21.4404 26.5075C21.4404 26.0661 21.0713 25.7087 20.6153 25.7087H0.825071C0.370254 25.7087 0 26.0661 0 26.5075C0 26.9478 0.370254 27.3052 0.825071 27.3052H20.6153C21.0702 27.3052 21.4404 26.9478 21.4404 26.5075Z" fill="#F97316"/>
</g>
<path d="M21.4402 32.0291C21.4402 31.5888 21.0711 31.2314 20.6151 31.2314H3.94226C3.48744 31.2314 3.11719 31.5888 3.11719 32.0291C3.11719 32.4705 3.48744 32.8279 3.94226 32.8279H20.6151C21.0711 32.8279 21.4402 32.4705 21.4402 32.0291Z" fill="#F97316"/>
<path d="M21.4405 37.5508C21.4405 37.1105 21.0714 36.7532 20.6154 36.7532H7.5697C7.11374 36.7532 6.74463 37.1105 6.74463 37.5508C6.74463 37.9923 7.11374 38.3496 7.5697 38.3496H20.6154C21.0714 38.3496 21.4405 37.9923 21.4405 37.5508Z" fill="#F97316"/>
</svg>
