<svg width="121" height="117" viewBox="0 0 121 117" fill="none" xmlns="http://www.w3.org/2000/svg">
<path d="M97.8789 -3.69154C96.7718 -2.93805 96.1271 -1.76857 96.0405 -0.54298L78.2858 -1.49201C78.2705 -1.95244 78.1309 -2.41409 77.8348 -2.82025C77.0628 -3.87904 75.5537 -4.1392 74.4704 -3.4019C73.6139 -2.81898 73.2774 -1.78974 73.5546 -0.846487L34.2924 12.3372C34.1874 12.0956 34.0622 11.8491 33.8927 11.6165C32.7568 10.0586 30.5348 9.67352 28.9393 10.7595C27.3437 11.8455 26.9708 13.9966 28.1067 15.5545C28.1576 15.6243 28.2006 15.6832 28.2551 15.7319L7.83346 33.1638C7.01841 32.3616 5.70723 32.2265 4.7318 32.8904C3.64487 33.6488 3.3919 35.1082 4.16387 36.167C4.93583 37.2258 6.44339 37.4871 7.52667 36.7498C8.05166 36.3925 8.3828 35.8702 8.48962 35.3104L66.3069 39.7578L59.4511 69.4651C58.8928 69.409 58.3052 69.5307 57.8167 69.8631C56.7334 70.6004 56.4804 72.0599 57.2524 73.1187C58.0243 74.1775 59.5319 74.4388 60.6152 73.7015C61.0799 73.3852 61.3863 72.9493 61.5249 72.456L105.046 79.9165C104.935 80.7411 105.141 81.6097 105.675 82.3414C106.812 83.901 109.012 84.2822 110.608 83.1963C112.179 82.1265 112.566 80.0197 111.469 78.4672L132.815 56.6138C133.581 56.9808 134.513 56.9378 135.251 56.4359C136.334 55.6986 136.589 54.238 135.817 53.1792C135.122 52.2258 133.83 51.9221 132.791 52.4017L112.937 25.5606C113.514 25.0822 113.629 24.2382 113.171 23.6104C112.772 23.0631 112.072 22.8604 111.45 23.0587L102.412 3.70047C102.619 3.59418 102.828 3.48682 103.018 3.35727C105.006 2.00466 105.471 -0.680277 104.056 -2.62114C102.64 -4.56356 99.8662 -5.04415 97.8789 -3.69154ZM131.622 55.3898L110.217 60.4066L110.943 47.4521L131.51 53.9186C131.395 54.3957 131.421 54.9188 131.622 55.3898ZM61.1005 70.3604L91.0081 45.1502C92.2961 46.5002 94.2701 46.9845 96.0244 46.4352L101.826 62.3574L61.621 71.7806C61.6179 71.3142 61.4656 70.8612 61.1684 70.4534C61.1641 70.4216 61.1265 70.3961 61.1005 70.3604ZM34.4369 14.4656L43.3697 15.6249L39.6572 17.5439L34.1964 15.1349C34.2972 14.9086 34.388 14.6914 34.4369 14.4656ZM43.8619 15.6912L71.037 19.2234L68.4937 30.2486L39.9885 17.6826L43.8619 15.6912ZM74.0698 0.0553983C74.4056 0.418316 74.8343 0.664622 75.2974 0.785496L71.105 18.9522L44.3018 15.4613L74.0698 0.0553983ZM91.7437 38.1944C91.0997 38.6327 90.6146 39.1879 90.274 39.8209L68.78 30.3483L71.3381 19.2458L85.0014 21.0312L92.2681 37.8885C92.0846 37.9786 91.9102 38.081 91.7437 38.1944ZM71.3939 18.9805L75.5826 0.834924C75.8192 0.866436 76.0504 0.864512 76.2879 0.825768L84.8645 20.723L71.3939 18.9805ZM90.1447 40.0829C89.9747 40.4584 89.8508 40.8744 89.7888 41.2808L66.6686 39.4954L68.7084 30.6407L90.1447 40.0829ZM61.6103 72.0848L101.945 62.6434L107.241 77.186C106.993 77.2852 106.742 77.4055 106.504 77.5674C105.753 78.078 105.267 78.8267 105.094 79.6404L61.6024 72.1945C61.6093 72.1551 61.6034 72.1243 61.6103 72.0848ZM108.999 76.9827C108.506 76.919 108.004 76.9634 107.53 77.0939L102.23 62.5696L109.912 60.7695L108.999 76.9827ZM102.119 62.2972L96.3132 46.3431C96.6606 46.211 96.9837 46.0421 97.3057 45.823C98.1145 45.2724 98.6873 44.5185 99.0086 43.6897L110.668 47.3422L109.935 60.4593L102.119 62.2972ZM99.1051 43.4315C99.5259 42.1014 99.3366 40.595 98.438 39.3626C98.2854 39.1533 98.1281 38.9635 97.9496 38.7904L111.029 25.6065C111.279 25.8029 111.585 25.9074 111.898 25.9196L110.703 47.0747L99.1051 43.4315ZM110.804 25.3955L97.7235 38.5778C96.3117 37.3283 94.2597 37.0038 92.532 37.7622L85.3385 21.0801L110.429 24.3446C110.415 24.6673 110.494 24.9965 110.707 25.2879C110.741 25.3344 110.765 25.3685 110.804 25.3955ZM110.477 24.0685L85.2032 20.7709L76.5825 0.764409C76.8237 0.704632 77.0627 0.593002 77.2768 0.447272C77.3482 0.398694 77.4196 0.350116 77.483 0.290686L110.601 23.7757C110.554 23.8584 110.506 23.961 110.477 24.0685ZM73.6564 -0.586412C73.7264 -0.441551 73.7874 -0.309097 73.8892 -0.169577L43.8081 15.3961L34.4974 14.1808C34.5863 13.668 34.5451 13.1232 34.3815 12.6059L73.6564 -0.586412ZM28.4357 15.9569C29.6422 17.1723 31.5962 17.4079 33.0475 16.4202C33.4646 16.1363 33.7992 15.788 34.0374 15.3823L39.314 17.7079L8.26315 33.7759C8.20644 33.6754 8.16036 33.5861 8.09254 33.4931C8.06655 33.4575 8.04959 33.4342 8.02473 33.4001L28.4357 15.9569ZM8.53116 35.0223C8.55621 34.6922 8.50927 34.3576 8.38511 34.0409L39.675 17.8612L68.4459 30.5247L66.3892 39.4768L8.53116 35.0223ZM66.6096 39.7791L89.7499 41.5693C89.6516 42.629 89.9284 43.7442 90.6156 44.6867C90.6834 44.7797 90.7512 44.8727 90.8317 44.9571L60.9131 70.1749C60.5894 69.8547 60.1856 69.6425 59.7421 69.5454L66.6096 39.7791ZM111.292 78.2238C110.76 77.5927 110.056 77.1862 109.276 77.0212L110.199 60.6973L131.755 55.6471C131.786 55.7136 131.837 55.7834 131.879 55.8407C132.066 56.0965 132.292 56.3091 132.549 56.466L111.292 78.2238ZM132.445 52.5867C132.04 52.862 131.755 53.2297 131.59 53.6371L110.954 47.1479L112.156 25.8831C112.337 25.8644 112.519 25.7942 112.691 25.7117L132.529 52.5295C132.513 52.5565 132.481 52.5619 132.445 52.5867ZM111.186 23.185C111.151 23.2088 111.114 23.2336 111.067 23.266C110.948 23.3469 110.851 23.4317 110.768 23.5392L77.6965 0.0920263C78.0332 -0.276258 78.2247 -0.719789 78.274 -1.18935L96.0314 -0.239841C96.0143 0.64159 96.2893 1.533 96.8487 2.30036C98.0694 3.97459 100.279 4.56062 102.148 3.82674L111.186 23.185Z" fill="#773DF6" fill-opacity="0.5"/>
</svg>
