<svg width="51" height="70" viewBox="0 0 51 70" fill="none" xmlns="http://www.w3.org/2000/svg">
<path d="M38.9248 1.13956C38.4168 1.81437 37.9836 2.43633 37.9507 2.51181C37.9193 2.59786 39.3805 3.79801 41.8904 5.74844C44.0926 7.45281 45.9466 8.8794 46.0094 8.92167C46.0946 8.97602 46.4755 8.55785 47.0582 7.76379C47.5662 7.08899 48.0009 6.47759 48.0323 6.40211C48.0637 6.31757 47.3122 5.6624 46.1468 4.76266C43.9447 3.04773 40.2813 0.227751 40.0154 0.0345193C39.857 -0.0832315 39.7196 0.0571637 38.9248 1.13956Z" fill="#905EFF"/>
<path d="M37.5491 5.17022C37.1472 5.69557 36.8186 6.19827 36.8081 6.27375C36.8081 6.34923 37.8674 7.2384 39.1806 8.24683C42.3569 10.6909 42.8648 11.0653 42.9814 10.9898C43.1397 10.8947 44.4739 9.136 44.4634 9.03938C44.4634 8.9639 43.1935 7.97812 38.7249 4.53768L38.2797 4.20557L37.5491 5.17022Z" fill="#905EFF"/>
<path d="M32.2541 6.83074C31.9045 7.29268 28.0828 12.4375 23.7412 18.2797C19.41 24.1114 15.8199 28.9452 15.7676 29.0101C15.7034 29.0856 17.6844 30.6496 21.5495 33.5873L27.4254 38.0467L29.9996 34.5942C31.4174 32.6981 32.6141 31.0783 32.6574 31.0149C32.6993 30.9289 32.4871 30.6284 32.0539 30.1786C31.2277 29.3528 30.6973 28.5059 30.264 27.3163C29.9876 26.5449 29.9353 26.2445 29.8935 25.0866C29.8293 23.4472 29.9876 22.6637 30.645 21.2809C32.4767 17.4645 37.1036 15.8779 40.9268 17.7438C41.3287 17.937 41.6992 18.0759 41.7425 18.0548C41.8695 17.9687 44.2629 14.7849 44.2629 14.6989C44.2525 14.6672 43.5323 14.0769 42.6419 13.4021C35.1883 7.67764 33.1012 6.09102 32.9951 6.04875C32.9323 6.02762 32.5932 6.38087 32.2541 6.83074ZM28.2621 17.7332L29.0031 18.3009L28.1993 19.3621C27.7645 19.9524 25.9433 22.3633 24.164 24.7334C22.3861 27.1125 20.9025 29.0524 20.8607 29.0524C20.8293 29.0524 20.4588 28.7958 20.0345 28.4848L19.283 27.9172L20.0883 26.8453C20.9354 25.7191 24.9483 20.3917 26.4722 18.3658C26.9712 17.7015 27.4045 17.1535 27.4463 17.1535C27.4896 17.1535 27.8602 17.4117 28.2621 17.7332Z" fill="#905EFF"/>
<path d="M36.5646 18.9878C34.3296 19.3833 32.4875 21.1314 31.9152 23.4034C31.6717 24.3258 31.7673 25.7614 32.1065 26.705C32.9431 28.9996 35.0288 30.4684 37.4745 30.479C40.6418 30.4896 43.1935 27.9595 43.204 24.7968C43.204 23.7567 43.0456 23.0502 42.6004 22.0961C41.583 19.9192 38.9371 18.559 36.5646 18.9878Z" fill="#905EFF"/>
<mask id="mask0_463_1440" style="mask-type:luminance" maskUnits="userSpaceOnUse" x="37" y="25" width="14" height="35">
<path d="M37.0532 25.4807H50.9655V59.876H37.0532V25.4807Z" fill="white"/>
</mask>
<g mask="url(#mask0_463_1440)">
<path d="M45.0257 26.2128C44.6552 28.0772 43.3315 30.0926 41.7852 31.1538C41.2982 31.4859 40.1015 32.0536 39.8684 32.0536C39.7847 32.0536 39.71 32.0762 39.71 32.0868C39.71 32.1079 39.9745 32.5261 40.2822 32.9971C41.2982 34.5308 42.0496 36.3952 42.4844 38.4106C42.8235 40.0183 42.8235 43.2021 42.4739 44.8099C41.8166 47.9091 40.4406 50.5555 38.3759 52.7429L37.3809 53.7936L37.7723 54.0941C38.5656 54.7039 41.0337 57.2129 41.966 58.3708C42.4844 59.0139 42.961 59.5498 43.0133 59.5498C43.215 59.5498 45.078 57.5451 45.9042 56.4415C48.6158 52.829 50.183 49.0655 50.7866 44.7133C50.9973 43.1916 51.0302 39.73 50.8389 38.2717C50.2563 33.7806 48.6367 29.8888 45.9356 26.48C45.577 26.0196 45.2379 25.6331 45.205 25.6226C45.1736 25.6226 45.0885 25.8913 45.0257 26.2128Z" fill="#905EFF"/>
</g>
<path d="M15.5662 32.751C15.2479 33.1903 14.973 33.5979 14.9521 33.6508C14.9208 33.7368 16.4551 34.9491 21.4227 38.7322C22.4072 39.4825 23.2334 40.0939 23.2753 40.0833C23.3604 40.0833 24.4406 38.6688 24.5138 38.465C24.5571 38.3578 20.4366 35.1529 16.4671 32.194L16.1384 31.9585L15.5662 32.751Z" fill="#905EFF"/>
<path d="M15.079 36.7816L14.3589 37.7674L14.7294 38.0573C14.9206 38.2173 16.0964 39.1291 17.335 40.0726L19.579 41.7981L20.3319 40.7686C20.7548 40.2115 21.0521 39.7194 20.9983 39.6756C20.692 39.3978 16.0426 35.8925 15.9366 35.8487C15.8634 35.817 15.5033 36.214 15.079 36.7816Z" fill="#905EFF"/>
<mask id="mask1_463_1440" style="mask-type:luminance" maskUnits="userSpaceOnUse" x="0" y="48" width="31" height="12">
<path d="M0 48.282H30.1686V59.8759H0V48.282Z" fill="white"/>
</mask>
<g mask="url(#mask1_463_1440)">
<path d="M0 50.5995V52.8503H13.3535L14.2215 53.6217C15.227 54.523 17.102 56.1519 19.5372 58.2533L21.2314 59.7101H22.5028L23.0735 58.7137C24.0162 57.106 25.5416 54.5336 25.6895 54.286C25.827 54.0837 25.7956 54.0293 25.2025 53.5357C24.8529 53.2474 24.5675 52.9786 24.5675 52.9258C24.5675 52.882 25.086 52.8503 25.7314 52.8503C26.8967 52.8503 26.8967 52.8503 27.4047 52.4744C27.9455 52.0895 29.1527 51.5324 29.7338 51.4026L30.073 51.3286V48.3486H0V50.5995Z" fill="#905EFF"/>
</g>
<mask id="mask2_463_1440" style="mask-type:luminance" maskUnits="userSpaceOnUse" x="6" y="52" width="40" height="18">
<path d="M6.45557 52.9197H45.4672V69.6991H6.45557V52.9197Z" fill="white"/>
</mask>
<g mask="url(#mask2_463_1440)">
<path d="M30.3164 53.3334C29.5545 53.504 28.7821 53.901 28.1561 54.4369C27.6168 54.8974 27.1088 55.6809 25.1606 58.9824L23.5934 61.6303L18.5421 61.662C13.6597 61.7043 13.4804 61.7148 12.7065 61.9518C9.44508 62.9482 7.19062 65.6595 6.83056 69.0048L6.75586 69.6796H45.1101V69.3792C45.0877 68.1685 44.4961 66.1954 43.5848 64.3838C41.0016 59.2179 35.7487 54.0505 32.3498 53.3334C31.4608 53.1402 31.174 53.1402 30.3164 53.3334ZM32.0316 55.9692C32.8682 56.2062 33.5674 57.2026 33.5674 58.1672C33.5674 58.6926 33.0699 59.5817 32.5933 59.9033C32.0106 60.2897 31.0261 60.3652 30.433 60.0542C29.3005 59.464 28.8971 58.1566 29.5127 57.0199C30.0102 56.0764 30.9843 55.6809 32.0316 55.9692Z" fill="#905EFF"/>
</g>
</svg>
