<svg width="54" height="57" viewBox="0 0 54 57" fill="none" xmlns="http://www.w3.org/2000/svg">
<mask id="mask0_463_1472" style="mask-type:luminance" maskUnits="userSpaceOnUse" x="27" y="28" width="27" height="22">
<path d="M27.9131 28.2991H53.9612V49.1512H27.9131V28.2991Z" fill="white"/>
</mask>
<g mask="url(#mask0_463_1472)">
<path d="M38.0331 48.9924C37.5724 48.9924 37.1297 48.814 36.8031 48.4998L28.8062 40.7578C28.1271 40.1004 28.1271 39.0337 28.8062 38.3744L32.5763 34.7245C33.2554 34.067 34.3592 34.067 35.0383 34.7245L38.0331 37.6238L47.0477 28.8986C47.3742 28.5825 47.817 28.406 48.2797 28.406C48.7404 28.406 49.1832 28.5825 49.5097 28.8986L53.2798 32.5485C53.9609 33.2059 53.9609 34.2745 53.2798 34.932L39.2651 48.4998C38.9386 48.814 38.4959 48.9924 38.0331 48.9924ZM32.5002 39.5671L38.0331 44.9236L49.5858 33.7393L48.2797 32.4748L39.2651 41.2C38.586 41.8594 37.4822 41.8594 36.8031 41.2L33.8083 38.3007L32.5002 39.5671Z" fill="#2868FE"/>
</g>
<mask id="mask1_463_1472" style="mask-type:luminance" maskUnits="userSpaceOnUse" x="21" y="27" width="31" height="29">
<path d="M21.3193 27.0227H51.0635V55.4345H21.3193V27.0227Z" fill="white"/>
</mask>
<g mask="url(#mask1_463_1472)">
<path d="M36.3237 55.4206C34.4407 55.4206 32.6057 55.0754 30.8689 54.3928C29.068 53.6868 27.4534 52.6493 26.0711 51.3111C24.6869 49.971 23.6152 48.4079 22.886 46.6663C22.1808 44.9849 21.8223 43.2065 21.8223 41.3854C21.8223 39.5624 22.1808 37.7859 22.886 36.1026C23.6152 34.361 24.6869 32.7979 26.0711 31.4597C27.2811 30.2864 28.6774 29.34 30.2178 28.6496C31.7083 27.9805 33.2948 27.5635 34.9355 27.4122C38.2288 27.1058 41.5562 27.9048 44.3046 29.6619L42.3855 32.474C38.0445 29.7007 32.2191 30.2748 28.5331 33.8432C24.2362 38.0012 24.2362 44.7677 28.5331 48.9257C32.8281 53.0856 39.8194 53.0856 44.1143 48.9257C46.0455 47.0581 47.1853 44.5776 47.3275 41.942L50.8052 42.1185C50.6188 45.588 49.1184 48.852 46.5783 51.3092C45.1941 52.6493 43.5795 53.6868 41.7806 54.3928C40.0417 55.0754 38.2068 55.4206 36.3237 55.4206Z" fill="#2868FE"/>
</g>
<path d="M9.89014 18.2988H38.1499V21.6695H9.89014V18.2988Z" fill="#2868FE"/>
<path d="M15.6045 12.7668H31.3199V16.1375H15.6045V12.7668Z" fill="#2868FE"/>
<path d="M9.89014 23.1926H38.1499V26.5633H9.89014V23.1926Z" fill="#2868FE"/>
<mask id="mask2_463_1472" style="mask-type:luminance" maskUnits="userSpaceOnUse" x="0" y="0" width="47" height="57">
<path d="M0 0H46.9259V57H0V0Z" fill="white"/>
</mask>
<g mask="url(#mask2_463_1472)">
<path d="M25.6215 56.7865H1.74082C0.779261 56.7865 0 56.0321 0 55.1012V1.69482C0 0.761983 0.779261 0.00756836 1.74082 0.00756836H44.8045C45.766 0.00756836 46.5453 0.761983 46.5453 1.69482V28.4019H43.0637V3.38013H3.48364V53.4159H25.6215V56.7865Z" fill="#2868FE"/>
</g>
</svg>
