<svg width="91" height="101" viewBox="0 0 91 101" fill="none" xmlns="http://www.w3.org/2000/svg">
<mask id="mask0_463_1491" style="mask-type:luminance" maskUnits="userSpaceOnUse" x="0" y="0" width="91" height="101">
<path d="M0 0H90.8982V100.435H0V0Z" fill="white"/>
</mask>
<g mask="url(#mask0_463_1491)">
<path d="M45.7076 8.60202C45.9728 8.60202 46.2057 8.71935 46.5011 8.93385C51.5761 12.6536 57.2079 15.5869 63.2298 17.6493C68.8502 19.5761 75.0255 20.8173 81.5814 21.3398H81.5965C82.0302 21.3801 82.3692 21.7321 82.3748 22.1666C82.5169 31.6704 81.1364 41.2493 78.2656 50.6505C73.1432 67.4306 63.0613 80.7495 48.2925 90.2332C46.147 91.6136 44.704 91.6943 42.5736 90.5558C23.2165 80.1775 12.3089 63.7255 9.21656 40.2539C8.47614 34.6495 8.23185 28.9003 8.47613 22.6836C8.50265 21.9667 9.05749 21.3746 9.79224 21.2829C16.8556 20.3534 24.347 19.1985 31.4805 16.1735C35.9155 14.2926 40.1724 11.9936 44.1226 9.35184C44.8877 8.83668 45.327 8.60202 45.7076 8.60202ZM90.6597 21.6661C90.6161 20.0619 90.5006 18.3661 89.7242 16.8738C88.8133 15.1304 87.2548 13.9461 84.9445 13.2458C83.0831 12.6848 81.0152 12.5253 79.1973 12.3823H79.1651C70.3576 11.6985 61.7755 8.73952 54.3428 3.82445C54.1099 3.67045 53.8769 3.51829 53.644 3.35879C51.3697 1.83716 49.0178 0.258692 46.1527 0.124862C42.9315 -0.0273017 40.0986 1.74916 37.597 3.32396C37.3868 3.45046 37.1804 3.57879 36.9797 3.71262C31.1945 7.30405 24.8867 9.89999 18.2248 11.4216C15.2971 12.0908 12.1555 12.5399 8.3379 12.8424C4.72666 13.1229 2.18914 14.7069 1.00559 17.4202C0.174272 19.3103 0.0644384 21.3398 0.0170967 23.4297C-0.0207768 25.0228 -0.0264579 26.6215 -0.00562739 28.1761C0.223507 46.1406 4.11879 61.3038 11.5855 73.255C14.5359 77.9812 18.2096 82.4417 22.5026 86.5134C26.5209 90.3248 31.0885 93.8099 36.0916 96.8752C38.8658 98.5765 41.8805 100.135 45.1376 100.135C45.327 100.135 45.5183 100.129 45.7076 100.12C48.569 99.957 51.1273 98.5765 53.4641 97.1062C59.5068 93.2984 65.0477 88.5209 69.9334 82.8963C74.7036 77.3983 78.7428 71.2274 81.9241 64.5487C88.0843 51.6423 91.1028 36.8146 90.6597 21.6661Z" fill="#D6E2FE"/>
</g>
<path d="M65.0176 41.6776C64.9398 42.1592 64.5678 42.5342 64.2129 42.8761C56.8588 49.9877 49.5198 57.1086 42.1695 64.2184C41.5451 64.8231 40.7556 65.4775 39.8978 65.2882C39.4195 65.1816 39.0495 64.8323 38.7041 64.4996C34.7414 60.6635 30.7768 56.831 26.8141 52.9949C26.3529 52.5482 25.8595 52.0317 25.8595 51.4012C25.8652 50.7855 26.3434 50.28 26.7932 49.8444C27.9907 48.6698 29.1883 47.5026 30.3858 46.3299C30.8622 45.863 31.4144 45.3667 32.092 45.341C32.8435 45.3042 33.4698 45.8575 33.9993 46.3758C36.0983 48.4088 38.1954 50.4436 40.2944 52.471C45.8532 47.0872 51.412 41.6978 56.9689 36.314C57.4471 35.8526 57.9861 35.3674 58.6598 35.3417C59.4019 35.3159 60.0111 35.8637 60.5349 36.371C61.6964 37.5033 62.8617 38.6411 64.0269 39.777C64.5621 40.3046 65.1448 40.9497 65.0176 41.6776ZM75.8486 28.1693C75.8391 27.3606 75.2033 26.6786 74.3664 26.6125C74.3664 26.6069 74.3607 26.6069 74.355 26.6069C64.3932 25.8129 55.1261 22.9234 46.9122 16.9091C45.7469 16.0599 44.8891 16.5617 43.9022 17.216C40.7651 19.317 37.4705 21.0944 33.9936 22.5705C28.4576 24.9159 22.6237 25.8331 16.5563 26.6216C15.7611 26.7246 15.1613 27.3606 15.131 28.1326C14.9127 33.1837 15.0835 37.9536 15.7079 42.7033C18.1087 60.93 26.6604 74.828 42.7483 83.4597C44.7658 84.5406 46.3144 84.4376 48.29 83.1675C60.1971 75.5191 68.3464 64.8838 72.5425 51.1292C74.8218 43.6665 75.97 36.0126 75.8486 28.1693Z" fill="#D6E2FE"/>
</svg>
