<svg width="57" height="57" viewBox="0 0 57 57" fill="none" xmlns="http://www.w3.org/2000/svg">
<path d="M7.7002 29.5399V22.7799C7.7002 11.34 17.0602 2.5 28.5001 2.5C39.9401 2.5 49.3001 11.34 49.3001 22.7799V29.5399" stroke="#FE540D" stroke-width="5" stroke-linecap="round"/>
<path d="M9.77998 25.8999H6.65999C4.36249 25.8999 2.5 27.7624 2.5 30.0599V39.4199C2.5 41.7174 4.36249 43.5798 6.65999 43.5798H9.77998C12.0775 43.5798 13.94 41.7174 13.94 39.4199V30.0599C13.94 27.7624 12.0775 25.8999 9.77998 25.8999Z" stroke="#FE540D" stroke-width="5"/>
<path d="M50.34 25.8999H47.22C44.9225 25.8999 43.0601 27.7624 43.0601 30.0599V39.4199C43.0601 41.7174 44.9225 43.5798 47.22 43.5798H50.34C52.6375 43.5798 54.5 41.7174 54.5 39.4199V30.0599C54.5 27.7624 52.6375 25.8999 50.34 25.8999Z" stroke="#FE540D" stroke-width="5"/>
<path d="M49.3001 43.5798C49.3001 48.7798 45.1402 51.3798 38.9002 51.3798H33.7002" stroke="#FE540D" stroke-width="5" stroke-linecap="round"/>
<path d="M30.58 54.4999C32.3031 54.4999 33.6999 53.103 33.6999 51.3799C33.6999 49.6568 32.3031 48.2599 30.58 48.2599C28.8568 48.2599 27.46 49.6568 27.46 51.3799C27.46 53.103 28.8568 54.4999 30.58 54.4999Z" stroke="#FE540D" stroke-width="5"/>
</svg>
