<svg width="91" height="93" viewBox="0 0 91 93" fill="none" xmlns="http://www.w3.org/2000/svg">
<path d="M31.2812 42.1406L43.3672 29.0625L58.2969 34.1484L63.9844 49.4062L52.6094 63.9375L34.8359 61.0312L27.0156 48.6797L31.2812 42.1406Z" stroke="#FF5A1F" stroke-width="5" stroke-linecap="round" stroke-linejoin="round"/>
<path d="M41.2344 13.0781L42 27L31.2812 22.5234M58.2969 34.1484L68.25 22.5234M63.9844 49.4062H78.2031M52.6094 63.9375L56.1641 79.9219M34.8359 61.0312L21.3281 74.1094M27.0156 48.6797L13.5078 47.9531M31.2812 42.1406L19.1953 32.6953" stroke="#FF5A1F" stroke-width="5" stroke-linecap="round"/>
<path d="M41.2344 17.4375C43.5902 17.4375 45.5 15.4857 45.5 13.0781C45.5 10.6705 43.5902 8.71875 41.2344 8.71875C38.8785 8.71875 36.9688 10.6705 36.9688 13.0781C36.9688 15.4857 38.8785 17.4375 41.2344 17.4375Z" stroke="#FF5A1F" stroke-width="5"/>
<path d="M31.2812 26.8828C33.6371 26.8828 35.5469 24.9311 35.5469 22.5234C35.5469 20.1158 33.6371 18.1641 31.2812 18.1641C28.9254 18.1641 27.0156 20.1158 27.0156 22.5234C27.0156 24.9311 28.9254 26.8828 31.2812 26.8828Z" stroke="#FF5A1F" stroke-width="5"/>
<path d="M68.25 26.8828C70.6058 26.8828 72.5156 24.9311 72.5156 22.5234C72.5156 20.1158 70.6058 18.1641 68.25 18.1641C65.8942 18.1641 63.9844 20.1158 63.9844 22.5234C63.9844 24.9311 65.8942 26.8828 68.25 26.8828Z" stroke="#FF5A1F" stroke-width="5"/>
<path d="M78.2031 53.7656C80.559 53.7656 82.4688 51.8139 82.4688 49.4062C82.4688 46.9986 80.559 45.0469 78.2031 45.0469C75.8473 45.0469 73.9375 46.9986 73.9375 49.4062C73.9375 51.8139 75.8473 53.7656 78.2031 53.7656Z" fill="white" stroke="#FF5A1F" stroke-width="5"/>
<path d="M56.1641 84.2812C58.5199 84.2812 60.4297 82.3295 60.4297 79.9219C60.4297 77.5143 58.5199 75.5625 56.1641 75.5625C53.8082 75.5625 51.8984 77.5143 51.8984 79.9219C51.8984 82.3295 53.8082 84.2812 56.1641 84.2812Z" stroke="#FF5A1F" stroke-width="5"/>
<path d="M21.3281 78.4688C23.684 78.4688 25.5938 76.517 25.5938 74.1094C25.5938 71.7018 23.684 69.75 21.3281 69.75C18.9723 69.75 17.0625 71.7018 17.0625 74.1094C17.0625 76.517 18.9723 78.4688 21.3281 78.4688Z" stroke="#FF5A1F" stroke-width="5"/>
<path d="M13.5078 52.3125C15.8637 52.3125 17.7734 50.3607 17.7734 47.9531C17.7734 45.5455 15.8637 43.5938 13.5078 43.5938C11.152 43.5938 9.24219 45.5455 9.24219 47.9531C9.24219 50.3607 11.152 52.3125 13.5078 52.3125Z" stroke="#FF5A1F" stroke-width="5"/>
<path d="M19.1953 37.0547C21.5512 37.0547 23.4609 35.1029 23.4609 32.6953C23.4609 30.2877 21.5512 28.3359 19.1953 28.3359C16.8395 28.3359 14.9297 30.2877 14.9297 32.6953C14.9297 35.1029 16.8395 37.0547 19.1953 37.0547Z" stroke="#FF5A1F" stroke-width="5"/>
<circle cx="56.5" cy="80" r="3.5" fill="white"/>
</svg>
