<svg width="58" height="81" viewBox="0 0 58 81" fill="none" xmlns="http://www.w3.org/2000/svg">
<path d="M43.7967 1.32433C43.2252 2.10854 42.7377 2.83135 42.7008 2.91907C42.6655 3.01907 44.3094 4.41382 47.1333 6.68049C49.6109 8.6612 51.6969 10.3191 51.7675 10.3682C51.8633 10.4314 52.2919 9.94541 52.9475 9.0226C53.519 8.23839 54.0081 7.52786 54.0434 7.44014C54.0787 7.3419 53.2332 6.58049 51.9221 5.53487C49.4445 3.54188 45.3229 0.264678 45.0237 0.0401162C44.8456 -0.0967266 44.6909 0.0664322 43.7967 1.32433Z" fill="#295DFC"/>
<path d="M42.2439 6.01107C41.7917 6.6216 41.4219 7.20581 41.4102 7.29353C41.4102 7.38125 42.6019 8.41459 44.0794 9.58652C47.653 12.4269 48.2245 12.862 48.3556 12.7743C48.5338 12.6637 50.0348 10.6199 50.023 10.5076C50.023 10.4199 48.5943 9.27424 43.5667 5.27598L43.0658 4.89001L42.2439 6.01107Z" fill="#295DFC"/>
<path d="M36.2906 7.93985C35.8972 8.4767 31.5975 14.4557 26.7129 21.2452C21.8399 28.0224 17.8008 33.6399 17.7419 33.7154C17.6697 33.8031 19.8985 35.6207 24.247 39.0347L30.8579 44.2172L33.7541 40.2049C35.3493 38.0014 36.6957 36.1189 36.7444 36.0452C36.7915 35.9452 36.5528 35.5961 36.0653 35.0733C35.1358 34.1136 34.5391 33.1294 34.0516 31.747C33.7407 30.8505 33.6818 30.5013 33.6348 29.1557C33.5625 27.2504 33.7407 26.3399 34.4802 24.7329C36.541 20.2978 41.7467 18.4539 46.0481 20.6224C46.5003 20.8469 46.9172 21.0083 46.9659 20.9838C47.1088 20.8838 49.8016 17.1837 49.8016 17.0837C49.7898 17.0469 48.9796 16.3609 47.9778 15.5767C39.5918 8.92407 37.2436 7.0802 37.1243 7.03108C37.0537 7.00651 36.6721 7.41704 36.2906 7.93985ZM31.7992 20.6101L32.6329 21.2697L31.7286 22.5031C31.2395 23.189 29.1905 25.9908 27.1885 28.7452C25.1883 31.5101 23.5192 33.7645 23.4721 33.7645C23.4368 33.7645 23.0199 33.4663 22.5426 33.1049L21.6971 32.4452L22.6031 31.1996C23.5561 29.8908 28.071 23.6996 29.7855 21.3452C30.3469 20.5732 30.8344 19.9364 30.8815 19.9364C30.9302 19.9364 31.3471 20.2364 31.7992 20.6101Z" fill="#295DFC"/>
<path d="M41.1339 22.0616C38.6193 22.5213 36.5467 24.5529 35.903 27.1932C35.629 28.2652 35.7365 29.9336 36.1181 31.0301C37.0594 33.6968 39.4059 35.4038 42.1575 35.4161C45.721 35.4283 48.592 32.488 48.6038 28.8125C48.6038 27.6038 48.4256 26.7827 47.9247 25.6739C46.78 23.1441 43.8031 21.5634 41.1339 22.0616Z" fill="#295DFC"/>
<mask id="mask0_463_473" style="mask-type:luminance" maskUnits="userSpaceOnUse" x="41" y="29" width="17" height="41">
<path d="M41.6899 29.61H57.3424V69.5821H41.6899V29.61Z" fill="white"/>
</mask>
<g mask="url(#mask0_463_473)">
<path d="M50.6592 30.4607C50.2424 32.6274 48.7531 34.9695 47.0134 36.2029C46.4654 36.5888 45.119 37.2485 44.8568 37.2485C44.7627 37.2485 44.6786 37.2748 44.6786 37.2871C44.6786 37.3116 44.9761 37.7976 45.3224 38.345C46.4654 40.1274 47.3109 42.2941 47.8 44.6362C48.1816 46.5047 48.1816 50.2047 47.7883 52.0731C47.0487 55.6749 45.5006 58.7503 43.1776 61.2924L42.0581 62.5135L42.4985 62.8626C43.3911 63.5714 46.1679 66.4872 47.2168 67.8328C47.8 68.5802 48.3362 69.203 48.3951 69.203C48.622 69.203 50.7181 66.8732 51.6476 65.5907C54.6984 61.3924 56.4617 57.0187 57.1407 51.9608C57.3777 50.1924 57.4147 46.1696 57.1996 44.4748C56.544 39.2555 54.7219 34.7327 51.6829 30.7713C51.2795 30.2362 50.8979 29.7871 50.8609 29.7748C50.8256 29.7748 50.7298 30.0871 50.6592 30.4607Z" fill="#295DFC"/>
</g>
<path d="M17.5112 38.0611C17.1532 38.5716 16.8439 39.0453 16.8204 39.1067C16.7851 39.2067 18.5113 40.6155 24.1003 45.012C25.208 45.8839 26.1375 46.5944 26.1846 46.5822C26.2804 46.5822 27.4957 44.9383 27.5781 44.7014C27.6268 44.5769 22.9909 40.8523 18.5248 37.4137L18.155 37.14L17.5112 38.0611Z" fill="#295DFC"/>
<path d="M16.9703 42.7462L16.1602 43.8919L16.577 44.2287C16.7922 44.4147 18.115 45.4743 19.5085 46.5708L22.0332 48.5761L22.8804 47.3796C23.3561 46.7322 23.6905 46.1603 23.63 46.1094C23.2855 45.7866 18.0545 41.7129 17.9352 41.662C17.8528 41.6252 17.4477 42.0866 16.9703 42.7462Z" fill="#295DFC"/>
<mask id="mask1_463_473" style="mask-type:luminance" maskUnits="userSpaceOnUse" x="0" y="56" width="34" height="14">
<path d="M0 56.11H33.9422V69.5838H0V56.11Z" fill="white"/>
</mask>
<g mask="url(#mask1_463_473)">
<path d="M0 58.8031V61.4189H15.0238L16.0004 62.3154C17.1316 63.3628 19.2412 65.2558 21.981 67.6979L23.8871 69.3909H25.3176L25.9597 68.233C27.0203 66.3645 28.7365 63.3751 28.9029 63.0873C29.0576 62.8523 29.0223 62.7891 28.3549 62.2154C27.9616 61.8803 27.6406 61.568 27.6406 61.5066C27.6406 61.4558 28.2238 61.4189 28.95 61.4189C30.2611 61.4189 30.2611 61.4189 30.8326 60.9821C31.4411 60.5347 32.7992 59.8873 33.4531 59.7365L33.8347 59.6505V56.1873H0V58.8031Z" fill="#295DFC"/>
</g>
<mask id="mask2_463_473" style="mask-type:luminance" maskUnits="userSpaceOnUse" x="7" y="61" width="45" height="20">
<path d="M7.25977 61.5001H51.1512V81.0001H7.25977V61.5001Z" fill="white"/>
</mask>
<g mask="url(#mask2_463_473)">
<path d="M34.1053 61.9807C33.248 62.179 32.379 62.6404 31.6747 63.2632C31.0679 63.7983 30.4964 64.7088 28.3046 68.5457L26.5413 71.6229L20.8582 71.6597C15.3651 71.7088 15.1633 71.7211 14.2926 71.9966C10.6233 73.1545 8.0868 76.3053 7.6817 80.1931L7.59766 80.9773H50.7495V80.6282C50.7243 79.2211 50.0586 76.9282 49.0333 74.8229C46.127 68.8194 40.217 62.8141 36.393 61.9807C35.3929 61.7562 35.0701 61.7562 34.1053 61.9807ZM36.035 65.0439C36.9763 65.3193 37.7629 66.4772 37.7629 67.5983C37.7629 68.2088 37.2032 69.2422 36.667 69.6159C36.0114 70.065 34.9037 70.1527 34.2364 69.7913C32.9623 69.1053 32.5085 67.586 33.201 66.265C33.7607 65.1685 34.8567 64.7088 36.035 65.0439Z" fill="#295DFC"/>
</g>
</svg>
