<svg width="49" height="49" viewBox="0 0 49 49" fill="none" xmlns="http://www.w3.org/2000/svg">
<path d="M24.375 48C27.4775 48 30.5496 47.3889 33.4159 46.2017C36.2822 45.0144 38.8866 43.2742 41.0804 41.0804C43.2742 38.8866 45.0144 36.2822 46.2017 33.4159C47.3889 30.5496 48 27.4775 48 24.375C48 21.2725 47.3889 18.2004 46.2017 15.3341C45.0144 12.4678 43.2742 9.86339 41.0804 7.6696C38.8866 5.47582 36.2822 3.73561 33.4159 2.54835C30.5496 1.36108 27.4775 0.75 24.375 0.75M24.375 48C21.2725 48 18.2004 47.3889 15.3341 46.2017C12.4678 45.0144 9.86339 43.2742 7.6696 41.0804C5.47582 38.8866 3.73561 36.2822 2.54835 33.4159C1.36108 30.5496 0.75 27.4775 0.75 24.375C0.75 21.2725 1.36108 18.2004 2.54835 15.3341C3.73561 12.4678 5.47582 9.86339 7.6696 7.6696C9.86339 5.47582 12.4678 3.73561 15.3341 2.54835C18.2004 1.36108 21.2725 0.75 24.375 0.75M24.375 48C31.6226 48 34.7201 34.4471 34.7201 24.375C34.7201 14.3029 31.6226 0.75 24.375 0.75M24.375 48C17.1274 48 14.0299 34.4471 14.0299 24.375C14.0299 14.3029 17.1274 0.75 24.375 0.75M2.0625 16.5H46.6875M2.0625 32.25H46.6875" stroke="#0044FD" stroke-width="1.5" stroke-linecap="round" stroke-linejoin="round"/>
</svg>
