<svg width="40" height="52" viewBox="0 0 40 52" fill="none" xmlns="http://www.w3.org/2000/svg">
<mask id="mask0_463_90" style="mask-type:luminance" maskUnits="userSpaceOnUse" x="0" y="0" width="40" height="40">
<path d="M0 0H39.1312V39.026H0V0Z" fill="white"/>
</mask>
<g mask="url(#mask0_463_90)">
<path d="M19.6723 0.00932783C30.3078 0.0686122 39.1903 8.78059 39.1311 19.5214C39.0708 30.2622 30.0942 38.8763 19.4577 38.817C8.82312 38.7587 -0.059428 30.0458 0.000792701 19.305C0.0591316 8.56509 9.03766 -0.0490154 19.6723 0.00932783ZM2.9836 18.2896C2.36822 27.3846 9.39334 35.243 18.4471 35.8557C27.5019 36.4673 35.5216 29.6242 36.137 20.5292C36.7523 11.4352 29.7272 3.5758 20.6725 2.96413C11.6187 2.35247 3.59898 9.19558 2.9836 18.2896Z" fill="#7C5CBF"/>
</g>
<path d="M19.7917 4.27693C28.1238 4.40303 34.9438 11.2725 34.8167 19.641C34.6897 28.0104 27.6646 34.671 19.3325 34.5439C11.0004 34.4178 4.17947 27.5484 4.30744 19.1799C4.43352 10.8104 11.4586 4.1499 19.7917 4.27693ZM6.24955 18.524C5.75838 25.8291 11.405 32.1396 18.6785 32.629C25.9521 33.1164 32.391 27.6171 32.8821 20.311C33.3733 13.0058 27.7276 6.69442 20.4541 6.20603C13.1796 5.71858 6.74073 11.2179 6.24955 18.524Z" fill="#7C5CBF"/>
<path d="M24.4073 20.8041C24.1956 21.0027 24.1043 21.2097 24.1504 21.4911C24.2642 22.1874 24.5014 23.5425 24.8608 25.5563C24.9041 25.8 24.9088 25.9825 24.874 26.1039C24.762 26.5001 24.3621 26.7363 23.9584 26.694C23.8399 26.6817 23.6489 26.6046 23.3835 26.4625C22.898 26.2018 21.7481 25.5911 19.9331 24.6294C19.6075 24.4562 19.3384 24.539 18.9978 24.7169C18.5245 24.9653 17.4358 25.5478 15.7317 26.4634C15.2754 26.709 14.8886 26.7956 14.4972 26.4549C14.1378 26.1425 14.214 25.7981 14.2996 25.2862C14.5339 23.8794 14.7447 22.6777 14.9329 21.6811C15.0166 21.2407 14.9178 20.9933 14.6035 20.7081C14.1999 20.3402 13.2363 19.4377 11.712 17.9989C11.5135 17.8117 11.3968 17.6658 11.3601 17.5604C11.2396 17.2038 11.3676 16.7935 11.6866 16.5752C11.7769 16.513 11.9482 16.4679 12.1994 16.4406C13.034 16.3521 14.1707 16.2016 15.6094 15.988C16.3462 15.8797 16.7169 15.8986 17.0208 15.2643C17.6277 14.0015 18.1678 12.8591 18.6393 11.8362C18.739 11.6207 18.818 11.4711 18.8745 11.3882C19.2339 10.8679 20.03 10.9328 20.3038 11.5125C20.7263 12.4055 21.1525 13.307 21.5835 14.216C21.7114 14.4861 21.8008 14.6846 21.8535 14.8126C22.0737 15.3556 22.2864 15.7828 22.8989 15.8967C23.2029 15.9531 24.5286 16.1357 26.8754 16.4453C27.1482 16.4811 27.3261 16.529 27.4089 16.5883C27.7345 16.8198 27.8671 17.2612 27.7034 17.6319C27.6535 17.7467 27.5218 17.902 27.3101 18.0977C26.291 19.0397 25.3237 19.9421 24.4073 20.8041Z" fill="#7C5CBF"/>
<mask id="mask1_463_90" style="mask-type:luminance" maskUnits="userSpaceOnUse" x="20" y="35" width="17" height="17">
<path d="M20.5361 35.4125H36.6753V51.9387H20.5361V35.4125Z" fill="white"/>
</mask>
<g mask="url(#mask1_463_90)">
<path d="M32.3705 35.4764C32.3856 35.4651 32.4072 35.467 32.4195 35.483C32.4214 35.4849 32.4232 35.4877 32.4242 35.4905C32.6387 36.0561 32.8156 36.5379 32.9558 36.9359C33.972 39.8399 35.1689 43.2681 36.5465 47.2204C36.6509 47.5168 36.6302 47.7577 36.4872 47.9412C36.2303 48.2724 35.8991 48.2197 35.5039 48.0946C33.6888 47.5159 31.837 46.9428 29.9476 46.3744C29.8272 46.3377 29.7293 46.3198 29.6521 46.3208C29.623 46.3208 29.5957 46.3349 29.5806 46.3593C27.8596 49.0055 26.7314 50.7473 26.196 51.5867C25.9109 52.0346 25.209 52.0695 24.9992 51.5331C24.7893 50.9939 24.253 49.5287 23.3892 47.1385C22.5687 44.8659 21.6936 42.4917 20.7658 40.015C20.7545 39.9839 20.7705 39.95 20.8007 39.9387C20.8072 39.9369 20.8129 39.9359 20.8185 39.935C21.5939 39.902 22.3861 39.8108 23.1963 39.6593C26.6185 39.0231 29.6427 37.5796 32.3705 35.4764Z" fill="#7C5CBF"/>
</g>
<mask id="mask2_463_90" style="mask-type:luminance" maskUnits="userSpaceOnUse" x="2" y="35" width="17" height="17">
<path d="M2.46973 35.4125H18.368V51.9387H2.46973V35.4125Z" fill="white"/>
</mask>
<g mask="url(#mask2_463_90)">
<path d="M6.75974 35.4869C9.48284 37.5854 12.5023 39.0252 15.9189 39.6594C16.7281 39.809 17.5195 39.9003 18.292 39.9333C18.3249 39.9342 18.3503 39.9615 18.3485 39.9944C18.3485 40.001 18.3475 40.0067 18.3447 40.0123C17.4197 42.4853 16.5484 44.8557 15.7289 47.1255C14.8688 49.5119 14.3344 50.9743 14.1245 51.5116C13.9156 52.048 13.2156 52.0131 12.9295 51.5671C12.3951 50.7296 11.2678 48.9906 9.54965 46.3501C9.53459 46.3256 9.5073 46.3115 9.47814 46.3115C9.40098 46.3115 9.30218 46.3294 9.18174 46.3651C7.29702 46.9335 5.449 47.5066 3.63673 48.0853C3.24247 48.2105 2.9122 48.2622 2.65532 47.9329C2.5123 47.7484 2.4916 47.5085 2.5951 47.2121C3.96888 43.2664 5.16295 39.8439 6.17541 36.9455C6.31467 36.5475 6.49157 36.0666 6.7061 35.502C6.71269 35.4841 6.73339 35.4747 6.75127 35.4822C6.75409 35.4832 6.75691 35.485 6.75974 35.4869Z" fill="#7C5CBF"/>
</g>
</svg>
