<svg width="47" height="56" viewBox="0 0 47 56" fill="none" xmlns="http://www.w3.org/2000/svg">
<mask id="mask0_463_77" style="mask-type:luminance" maskUnits="userSpaceOnUse" x="0" y="0" width="47" height="56">
<path d="M0 0H46.4133V55.4086H0V0Z" fill="white"/>
</mask>
<g mask="url(#mask0_463_77)">
<path d="M39.4283 24.6245C39.4283 28.8709 37.8358 32.9051 34.9435 35.9793C34.5332 36.4146 34.1378 36.8237 33.7642 37.2108C31.7506 39.2867 30.4408 40.6328 29.8892 43.2063H16.5553C16.1124 40.5775 14.8827 39.3711 12.9235 37.447C12.5281 37.06 12.1139 36.6508 11.679 36.2045C8.50787 32.9493 6.84224 28.6356 6.99447 24.0565C7.28113 15.4221 14.433 8.28048 22.9381 8.13974C27.3567 8.07339 31.4609 9.7472 34.5846 12.8706C37.7083 15.9971 39.4283 20.167 39.4283 24.6245ZM19.0295 49.9458H16.8162C17.354 53.0351 20.0131 55.3915 23.2059 55.3915C26.3988 55.3915 29.0589 53.0351 29.5956 49.9458H19.0295ZM14.7562 5.66974C14.9262 6.09397 15.3285 6.34831 15.7536 6.34831C15.891 6.34831 16.0334 6.32217 16.1668 6.26387C16.7184 6.03165 16.9803 5.38926 16.751 4.82932L15.1002 0.765929C14.8719 0.205981 14.2372 -0.0553946 13.6886 0.172807C13.138 0.405029 12.8761 1.0464 13.1044 1.60736L14.7562 5.66974ZM30.2411 6.26387C30.3756 6.31916 30.5169 6.34831 30.6553 6.34831C31.0794 6.34831 31.4827 6.09397 31.6527 5.66974L33.3075 1.60736C33.5358 1.0464 33.2749 0.401008 32.7233 0.172807C32.1717 -0.0594157 31.5371 0.205981 31.3117 0.765929L29.6569 4.82932C29.4286 5.38926 29.6895 6.03165 30.2411 6.26387ZM41.1918 17.0517C41.3292 17.0517 41.4705 17.0255 41.605 16.9662L45.5995 15.2854C46.1511 15.0531 46.4131 14.4077 46.1837 13.8508C45.9554 13.2909 45.3208 13.0255 44.7731 13.2577L40.7776 14.9385C40.226 15.1708 39.9651 15.8161 40.1934 16.3731C40.3644 16.7973 40.7667 17.0517 41.1918 17.0517ZM45.5995 31.7581L41.605 30.0772C41.0574 29.845 40.4227 30.1104 40.1934 30.6703C39.9651 31.2313 40.226 31.8757 40.7776 32.1049L44.7731 33.7857C44.9066 33.841 45.0489 33.8712 45.1863 33.8712C45.6104 33.8712 46.0137 33.6168 46.1837 33.1926C46.4131 32.6357 46.1511 31.9903 45.5995 31.7581ZM4.80691 30.0772L0.812357 31.7581C0.260772 31.9903 -0.000193626 32.6357 0.228151 33.1926C0.398174 33.6168 0.804449 33.8712 1.22555 33.8712C1.36394 33.8712 1.5053 33.845 1.63974 33.7857L5.63428 32.1049C6.18587 31.8727 6.44683 31.2273 6.21849 30.6703C5.99311 30.1104 5.35849 29.845 4.80691 30.0772ZM5.63428 14.9385L1.63974 13.2577C1.08815 13.0255 0.452541 13.2909 0.228151 13.8508C-0.000193626 14.4118 0.260772 15.0572 0.812357 15.2854L4.80691 16.9662C4.94134 17.0215 5.0827 17.0517 5.2201 17.0517C5.64516 17.0517 6.04748 16.7973 6.21849 16.3731C6.45079 15.8121 6.18587 15.1708 5.63428 14.9385ZM18.8812 45.4511H16.7184V47.7H29.6935V45.4511H18.8812Z" fill="#F48122"/>
</g>
</svg>
