<svg width="116" height="134" viewBox="0 0 116 134" fill="none" xmlns="http://www.w3.org/2000/svg">
<mask id="mask0_463_1548" style="mask-type:luminance" maskUnits="userSpaceOnUse" x="0" y="0" width="144" height="144">
<path d="M0 58.7414L83.3873 0L143.379 85.1617L59.9914 143.903L0 58.7414Z" fill="white"/>
</mask>
<g mask="url(#mask0_463_1548)">
<path d="M95.0683 24.0898C93.9913 24.8485 93.3601 26.0204 93.2696 27.2454L76.0684 26.3905C76.056 25.9305 75.9232 25.47 75.6385 25.0658C74.8961 24.0119 73.435 23.7599 72.3811 24.5023C71.5479 25.0892 71.2163 26.1193 71.4797 27.0603L33.3583 40.4392C33.2579 40.1983 33.1379 39.9527 32.9749 39.7212C31.8825 38.1706 29.7313 37.7975 28.1791 38.891C26.6269 39.9844 26.2538 42.1356 27.3462 43.6863C27.3951 43.7557 27.4364 43.8144 27.489 43.8628L7.60318 61.3872C6.81766 60.59 5.54771 60.4618 4.59879 61.1303C3.54131 61.8937 3.28821 63.3533 4.03058 64.4071C4.77294 65.461 6.23252 65.7141 7.28636 64.9717C7.79707 64.6119 8.12083 64.0883 8.2274 63.5285L64.235 67.6682L57.4292 97.3863C56.8885 97.3332 56.3183 97.4578 55.8431 97.7925C54.7893 98.5349 54.5362 99.9945 55.2785 101.048C56.0209 102.102 57.4805 102.355 58.5343 101.613C58.9864 101.294 59.2857 100.857 59.4228 100.364L101.559 107.589C101.447 108.414 101.642 109.28 102.155 110.009C103.249 111.561 105.379 111.93 106.931 110.837C108.46 109.76 108.846 107.653 107.792 106.107L128.598 84.1602C129.338 84.5229 130.242 84.4751 130.959 83.9697C132.013 83.2273 132.268 81.7666 131.525 80.7128C130.857 79.7639 129.607 79.4672 128.597 79.9518L109.502 53.238C110.064 52.757 110.18 51.913 109.74 51.2881C109.356 50.7435 108.678 50.5446 108.074 50.746L99.4209 31.4517C99.6224 31.3444 99.8254 31.2361 100.011 31.1056C101.944 29.7437 102.409 27.0586 101.049 25.1269C99.6867 23.1935 97.0016 22.7279 95.0683 24.0898ZM127.447 82.9435L106.676 88.0686L107.451 75.1213L127.347 81.4742C127.233 81.9515 127.255 82.4741 127.447 82.9435ZM59.0229 98.2721L88.1439 72.9261C89.3849 74.2682 91.2952 74.7417 92.9984 74.1837L98.5344 90.0619L59.5195 99.6884C59.5191 99.2223 59.374 98.7705 59.0881 98.3647C59.0841 98.3329 59.0479 98.3076 59.0229 98.2721ZM33.4868 42.565L42.1374 43.6763L38.5291 45.6133L33.25 43.235C33.3489 43.0084 33.4381 42.7909 33.4868 42.565ZM42.614 43.74L68.9307 47.1264L66.406 58.1556L38.8494 45.7501L42.614 43.74ZM71.9741 27.9587C72.2976 28.3196 72.7117 28.5634 73.1599 28.6818L68.9981 46.855L43.0416 43.508L71.9741 27.9587ZM88.8947 65.9724C88.2682 66.4137 87.795 66.971 87.4616 67.6053L66.6829 58.2537L69.2224 47.1472L82.454 48.8592L89.4046 65.664C89.2263 65.7549 89.0567 65.8583 88.8947 65.9724ZM69.2779 46.8819L73.436 28.7297C73.6651 28.7599 73.8891 28.7568 74.1195 28.7168L82.323 48.5521L69.2779 46.8819ZM87.3348 67.8677C87.168 68.2438 87.0457 68.6601 86.9833 69.0664L64.5869 67.4041L66.6118 58.5462L87.3348 67.8677ZM59.5075 99.9924L98.6475 90.347L103.702 104.849C103.461 104.95 103.216 105.071 102.985 105.234C102.255 105.748 101.779 106.499 101.607 107.313L59.4993 100.102C59.5061 100.063 59.5006 100.032 59.5075 99.9924ZM105.406 104.637C104.929 104.576 104.442 104.623 103.982 104.756L98.9247 90.2718L106.379 88.4328L105.406 104.637ZM98.8187 90.0001L93.2787 74.0901C93.6162 73.9563 93.9302 73.7859 94.2434 73.5653C95.0303 73.0109 95.5895 72.2546 95.9054 71.4249L107.185 75.013L106.403 88.1228L98.8187 90.0001ZM96.0003 71.1664C96.4153 69.8351 96.24 68.3311 95.3759 67.1044C95.2292 66.8961 95.0777 66.7073 94.9057 66.5353L107.653 53.2939C107.894 53.4887 108.191 53.5916 108.493 53.6021L107.22 74.7455L96.0003 71.1664ZM107.436 53.0842L94.6877 66.3241C93.3263 65.083 91.3395 64.7696 89.661 65.5364L82.7804 48.9063L107.079 52.0362C107.063 52.3586 107.138 52.6871 107.342 52.9772C107.375 53.0235 107.399 53.0574 107.436 53.0842ZM107.127 51.7601L82.651 48.5981L74.4054 28.6539C74.6394 28.5929 74.8717 28.4802 75.08 28.3334C75.1494 28.2845 75.2188 28.2356 75.2806 28.1759L107.248 51.4669C107.202 51.5497 107.155 51.6525 107.127 51.7601ZM71.577 27.3196C71.6441 27.464 71.7024 27.596 71.8003 27.7349L42.5635 43.4455L33.547 42.2802C33.6359 41.7673 33.5989 41.2232 33.4432 40.7072L71.577 27.3196ZM27.6628 44.0866C28.8254 45.2946 30.7178 45.5198 32.1296 44.5253C32.5354 44.2394 32.8616 43.8896 33.0946 43.483L38.1956 45.779L8.01627 61.9965C7.96186 61.8963 7.91768 61.8074 7.85247 61.7148C7.82747 61.6793 7.81117 61.6562 7.78725 61.6222L27.6628 44.0866ZM8.26922 63.2404C8.2953 62.9104 8.25163 62.5764 8.13302 62.2606L38.5446 45.9302L66.3581 58.4317L64.3162 67.387L8.26922 63.2404ZM64.5282 67.6879L86.9442 69.3549C86.8431 70.4142 87.1052 71.527 87.7661 72.4651C87.8313 72.5577 87.8965 72.6502 87.9741 72.7341L58.8422 98.0878C58.5303 97.7696 58.1401 97.5597 57.7109 97.4649L64.5282 67.6879ZM107.621 105.865C107.11 105.237 106.429 104.835 105.674 104.674L106.657 88.3592L127.575 83.2C127.606 83.2662 127.654 83.3357 127.695 83.3927C127.874 83.6473 128.092 83.8585 128.34 84.0139L107.621 105.865ZM128.26 80.1385C127.867 80.4157 127.589 80.7846 127.426 81.1925L107.463 74.8173L108.744 53.5643C108.919 53.5446 109.096 53.4736 109.263 53.3902L128.342 80.0809C128.327 80.108 128.296 80.1135 128.26 80.1385ZM107.818 50.8736C107.784 50.8975 107.749 50.9225 107.702 50.9551C107.587 51.0366 107.492 51.1218 107.411 51.2296L75.4886 27.9763C75.8169 27.6065 76.005 27.1624 76.0552 26.693L93.2591 27.5483C93.2377 28.4291 93.4993 29.3183 94.0374 30.0821C95.2112 31.7484 97.3493 32.3224 99.1645 31.5793L107.818 50.8736Z" fill="#773DF6" fill-opacity="0.5"/>
</g>
</svg>
