<svg width="58" height="55" viewBox="0 0 58 55" fill="none" xmlns="http://www.w3.org/2000/svg">
<path d="M0 20C0 8.95431 8.95431 0 20 0H38C49.0457 0 58 8.95431 58 20V35C58 46.0457 49.0457 55 38 55H0V20Z" fill="#F97316"/>
<path d="M25.8858 35.5562C22.8883 35.5562 20.3476 34.515 18.2639 32.4325C16.1814 30.3512 15.1401 27.8112 15.1401 24.8125C15.1401 21.8137 16.1814 19.2731 18.2639 17.1906C20.3464 15.1081 22.887 14.0675 25.8858 14.0687C28.8845 14.07 31.4245 15.1112 33.5058 17.1925C35.587 19.2737 36.6283 21.8137 36.6295 24.8125C36.6295 26.115 36.3989 27.3756 35.9376 28.5944C35.4764 29.8131 34.8701 30.8556 34.1189 31.7219L45.1983 42.7975C45.3733 42.9725 45.467 43.1881 45.4795 43.4444C45.4908 43.6981 45.397 43.925 45.1983 44.125C44.9983 44.325 44.777 44.425 44.5345 44.425C44.292 44.425 44.0708 44.325 43.8708 44.125L32.7933 33.0475C31.8558 33.8463 30.7776 34.4644 29.5589 34.9019C28.3401 35.3394 27.1151 35.5581 25.8839 35.5581M25.8839 33.6831C28.3714 33.6831 30.472 32.8269 32.1858 31.1144C33.8983 29.4019 34.7545 27.3012 34.7545 24.8125C34.7545 22.3237 33.8989 20.2237 32.1876 18.5125C30.4764 16.8012 28.3764 15.945 25.8876 15.9437C23.3989 15.9437 21.2983 16.8 19.5858 18.5125C17.8733 20.225 17.0164 22.325 17.0151 24.8125C17.0139 27.3 17.8701 29.4 19.5839 31.1125C21.2976 32.825 23.3976 33.6812 25.8839 33.6812" fill="white"/>
</svg>
